<svg width="224" height="212" xmlns="http://www.w3.org/2000/svg" xmlns:xlink="http://www.w3.org/1999/xlink">
 <defs>
  <g transform="matrix(1,0,0,1,192.55,294) " id="shape0">
   <path id="svg_1" stroke-opacity="0" stroke-linejoin="round" stroke-linecap="round" stroke="#ff00ff" fill="none" d="m187.95,-293.5l0,380l-379.95,0l-0.05,0l0,-380l380,0m-95,294.1l-189.95,0"/>
   <path id="svg_2" stroke-opacity="0" stroke-linejoin="round" stroke-linecap="round" stroke="#ff00ff" fill="none" d="m187.95,-293.5l-190,190l190,190m-380,-380l190,190l-189.95,190"/>
  </g>
  <g transform="matrix(1,0,0,1,4.5,2.3) " id="shape1">
   <path id="svg_3" fill-rule="evenodd" fill="#000000" d="m4.5,-2.3l-0.75,2.85l-8.25,1.8l4.85,-4.25l4.15,-0.4"/>
  </g>
  <g transform="matrix(1,0,0,1,3.25,2.45) " id="shape2">
   <path id="svg_4" fill-rule="evenodd" fill="#795200" d="m2.45,-0.05l-0.05,0.35q-0.85,1.8 -2.05,3l-0.05,-0.05q-2.15,-1.3 -3.05,-3.25q2.8,-4.85 5.2,-0.05"/>
   <path id="svg_5" stroke-linejoin="round" stroke-linecap="round" stroke="#312c11" fill="none" d="m2.45,-0.05l-0.05,0.35q-0.85,1.8 -2.05,3l-0.05,-0.05q-2.15,-1.3 -3.05,-3.25"/>
  </g>
  <g transform="matrix(1,0,0,1,1.3,8.8) " id="shape3">
   <path id="svg_6" fill-rule="evenodd" fill="#554d1e" d="m9.2,-4.65l-1.3,-3.75l1.45,-0.4l1.8,3.3l1.5,-0.25l1.85,-2.95l1,0.65l-0.95,2.95l4.15,2.15l-0.5,1.65l-3.05,-0.7q-8.3,4.55 -16.45,5.25l0.8,-7.05q4.05,2 8.9,1.6l0.8,-2.45"/>
  </g>
  <g transform="matrix(1,0,0,1,4.8,39.85) " id="sprite0">
   <use id="svg_7" xlink:href="#shape4" width="10.55" transform="matrix(1,0,0,1,-4.8,-39.85) " height="44.6"/>
  </g>
  <g transform="matrix(1,0,0,1,4.8,39.85) " id="shape4">
   <path id="svg_8" fill-rule="evenodd" fill="#996600" d="m-0.4,3.85l-0.3,-0.1q-3.05,-1.05 -3.6,-3.45l0.75,-19.95l0.2,-2.6q1.65,2.9 5.25,2.4q-0.1,18.55 -1.95,21.75l-0.3,0.45l-0.05,1.5m0.35,-1.95q-1.85,-1.45 -2.8,-1.55q0.95,0.1 2.8,1.55"/>
   <path id="svg_9" fill-rule="evenodd" fill="#795200" d="m-2.05,-39.35q1.25,-0.6 3.3,0.8l0.75,0.6q2.35,1.7 2.6,4.75l0.1,12.8l0.2,9.05l0.35,11.65q0.25,4.75 -4.7,3.8l-0.2,-0.05l-0.75,-0.2l0.05,-1.5l0.3,-0.45l0.5,0.4l0.55,0.45l-0.55,-0.45l-0.5,-0.4q1.85,-3.2 1.95,-21.75q-3.6,0.5 -5.25,-2.4l0,-0.25l1.3,-16.85"/>
   <path id="svg_10" stroke-linejoin="round" stroke-linecap="round" stroke="#554d1e" fill="none" d="m-4.3,0.3l0.75,-19.95l0.2,-2.6l0,-0.25l1.3,-16.85"/>
   <path id="svg_11" stroke-linejoin="round" stroke-linecap="round" stroke="#312c11" fill="none" d="m4.6,-33.2l0.1,12.8l0.2,9.05l0.35,11.65q0.25,4.75 -4.7,3.8l-0.2,-0.05l-0.75,-0.2l-0.3,-0.1q-3.05,-1.05 -3.6,-3.45"/>
   <path id="svg_12" stroke-linejoin="round" stroke-linecap="round" stroke="#312c11" fill="none" d="m-0.05,1.9l0.5,0.4l0.55,0.45m-3.85,-2.4q0.95,0.1 2.8,1.55"/>
   <path id="svg_13" stroke-opacity="0.8" stroke-linejoin="round" stroke-linecap="round" stroke="#000000" fill="none" d="m-3.8,-15.65q1.5,-1.3 1.85,0.3"/>
  </g>
  <g transform="matrix(1,0,0,1,0.5,0.5) " id="sprite1">
   <use id="svg_14" xlink:href="#shape5" width="6.8" transform="matrix(1,0,0,1,-0.5,-0.5) " height="3.7"/>
  </g>
  <g transform="matrix(1,0,0,1,0.5,0.5) " id="shape5">
   <path id="svg_15" stroke-opacity="0.8" stroke-linejoin="round" stroke-linecap="round" stroke="#000000" fill="none" d="m0,0.6q1.5,-1.3 1.85,0.3m3.95,1.8q-1.45,-2 -2.85,-0.8"/>
  </g>
  <g transform="matrix(1,0,0,1,21.15,18.75) " id="shape6">
   <path id="svg_16" fill-rule="evenodd" fill="#070b00" d="m2.75,-13.6l0.4,-0.15l0.7,0.1l0.5,0.5l-0.1,0.75l-0.35,0.35l0.5,0.1l0.5,0.55l-0.1,0.75l-0.55,0.45l-0.5,0.1q-1.4,-0.4 -2.45,-1.2q0.05,-0.3 0.65,-1.2l0.8,-1.1m0.45,-2.65l0.45,-0.25l0.75,0.15l0.4,0.55l-0.15,0.75l-0.3,0.4q-1.35,0.6 -2.65,0.7l-0.3,-1.4q-0.2,-1.1 -0.1,-1.3l0.2,-0.4q0.2,-0.3 0.6,-0.4l0.7,0.1l0.45,0.6l-0.05,0.5m-1.35,6.55q0.45,0.05 0.7,0.45l0.2,0.8l-0.25,0.55l0.6,-0.05q0.45,0.05 0.75,0.4l0.2,0.85l-0.45,0.7l-0.55,0.3l-3.15,-0.35l0.1,-0.8l-0.1,0.15l-0.85,0.45l0.05,0.45l0.05,0q0.5,0.05 0.75,0.45l0.05,0.05l0.15,-0.5l-0.1,0.55l0.1,0.75l-0.3,0.6l0.5,-0.1l0.2,-0.45l0.5,-0.4l1,-0.25q0.55,0.05 0.9,0.5q0.3,0.45 0.2,1l-0.3,0.7l0.75,-0.1q0.55,0.05 0.9,0.5l0.25,1l-0.55,0.9l-0.65,0.35l-0.55,0.05l0.2,0q0.8,0.15 1.25,0.75q0.4,0.65 0.25,1.45l-0.05,0.25l0.1,0l0.75,0.15l0.35,0.4q-0.05,-0.3 0.15,-0.55q0.2,-0.35 0.6,-0.45l0.75,0.15l0.45,0.6l0.05,0.55l-1.1,2.05l-0.1,0.3q1.6,-2.4 3.8,-4.45q-2.85,2.85 -4.75,6.55l-0.3,1.65l-0.55,0l-0.1,0.3l0,0.1l0,0.2q0.25,0.05 0.5,0.25l0.05,0.05l0.05,-0.15q0.5,-0.85 0.7,-0.95l0.35,-0.15l0.65,0.1l0.4,0.45l-0.05,0.65l-0.3,0.35l0.45,0.05l0.4,0.5l-0.05,0.65l-0.5,0.4l-0.45,0.1l-1.3,-0.5l-0.25,0.4l-0.55,0.5l-1.35,0.3l-0.7,2.4l-0.5,-0.2l0.6,-2.15l-1.95,0.05q-0.15,-0.4 -0.15,-2q0,-1.65 0.2,-1.9l0.35,-0.5l0.4,-0.3q-0.3,-0.4 -0.25,-0.85q0.05,-0.5 0.4,-0.8l0.1,-0.05l-2.3,-0.65l0.5,-2.75q0.55,-2.15 0.95,-2.5q0.35,-0.3 0.65,-0.5l0.8,-0.3l-1.6,-0.15l0.1,0.4l-0.2,0.75l-0.35,0.3l-1.35,0.3l-0.05,0l0.05,5.8q0.65,1.25 1.05,2.6l-0.75,0.45l0.05,0.5l0.15,0.15q1,2.25 1.1,4.45l-0.35,0.15l1.3,4.75l-0.85,0.2q-0.8,-2.35 -1.3,-4.75l-1.1,0.15l-2.25,0.1l-0.65,-0.35l-0.65,-1q-0.15,-0.65 0.2,-1.2l1,-0.7l0.9,0.1l-0.45,-0.8l0,-0.55l-1.45,0.3l-0.8,-0.25q-0.75,-0.25 -1.05,-1q-0.35,-0.7 -0.1,-1.4q0.25,-0.75 1,-1.05l1,-0.2l-0.7,-0.75q-0.35,-0.75 -0.05,-1.45q0.2,-0.75 0.95,-1.05l1.45,-0.1l0.9,0.5l0.85,1.2l0.25,-4.75l-0.25,0.05l0,1l0,2.05l-0.55,0l0.05,-0.6l-2,-0.05l-2.2,-0.4l-0.55,-0.5q-0.45,-0.45 -0.45,-1.1q0,-0.7 0.45,-1.15q0.5,-0.45 1.15,-0.45l0.1,0l-0.1,-0.05l-0.35,-0.5l0.1,-0.65l0.55,-0.35l0.45,0.05l-0.2,-0.4l0.1,-0.65l0.55,-0.35l0.6,0.15l0.3,0.2l0.2,0.4q0.55,0 0.95,0.4l0,-0.05l-0.05,-0.25l-0.5,-0.15l0.1,-1.05l-0.35,-0.05l-0.1,-0.05l-0.05,0.05l-0.05,-0.05l-1.55,-0.4l-1.4,0.5l-0.65,-0.1l-0.65,-0.6l-0.15,-0.5l-0.5,0.45l-0.55,0.2q-0.35,0.1 -0.55,-0.15q-0.25,-0.2 -0.15,-0.6l0.4,-0.75l0.5,-0.4l-0.4,-0.15q-0.25,-0.2 -0.15,-0.6l0.4,-0.75q0.35,-0.4 0.7,-0.45l0.4,-0.1l0.85,0.5l0.35,-0.35l-0.15,0.05l-0.45,-0.1l-0.45,-0.45l-0.05,-0.65l0.25,-0.3l-0.1,-0.5q-2.55,-2.65 -5.95,-3.9q3.35,1.1 5.85,3.15l-0.05,-0.7l-0.4,-0.35l-0.05,-0.25l-0.4,0.4q-1.15,-0.5 -1.85,-1.65l0,-0.6l0.4,-0.9l0.65,-0.55l-0.05,-0.15l0.2,-0.4l0.4,-0.2l0.3,0.05l0.65,0.5l0.8,-0.55l0.7,0.1l0.2,0.3l0.15,0.1l0,-0.35l0.35,-0.4l0.5,-0.05q0.25,0.05 0.4,0.3l0.15,0.3l-0.15,0.95l-0.3,0.95l-1.4,-0.4l-0.25,0.35l0.25,0.1l0.2,0.3l0.65,-0.1q0.45,0.1 0.55,0.6l0.05,0.1l0,-0.05q0.15,-0.3 0.45,-0.4l0.6,0l0.25,0.15l0.25,0.05l0.3,0.15l0.35,-0.3l0.8,-0.2q0.4,0.1 0.7,0.5l0.15,0.6l0.4,-0.45l0.85,-0.2l0.65,0.5l0.2,0.85l-0.2,0.55q-1.15,1.1 -2.45,1.7l0.05,0.55l0.45,-0.3l0.75,0.1l0.45,0.6q0.25,-1.2 0.45,-1.35l0.35,-0.35l0.85,-0.2m8.3,11.55l0.4,-0.05q0.3,-0.05 0.6,0.2l0.3,0.55l-0.2,0.6l-0.4,0.25q0.25,0 0.45,0.2q0.25,0.2 0.3,0.55l-0.2,0.6l-0.6,0.3l-0.45,0l-0.2,-0.1l0.4,0.8q0,0.45 -0.35,0.8l-0.5,0.35l0.55,0.3l0.4,0.8l-0.35,0.8l-0.8,0.4l-0.65,-0.05q-1.55,-0.95 -2.5,-2.2l1.15,-1.25l1.3,-1l0.5,-0.1l0.5,0.1l-1.3,-1.15l0.75,-0.95l0.9,-0.75m4.2,-4.1l0.25,0.05l0.35,0.3l0.05,0.4l-0.25,0.4l-0.3,0.05l0.2,0.25l0.1,0.45l-0.3,0.35l-0.4,0.05l-0.3,-0.1q-0.65,-0.7 -0.9,-1.45l0.7,-0.45l0.8,-0.3m-2.3,1.6l0.5,0.2l0.25,0.45l-0.15,0.5l-0.3,0.2q0.15,0 0.35,0.15l0.2,0.45l-0.15,0.5l-0.45,0.25l-0.4,0l-1.5,-1.25l0.65,-0.75l0.7,-0.65l0.3,-0.05m-0.85,-2.85l0.5,0.15l0.2,0.5l-0.1,0.35l0.35,-0.1l0.5,0.2l0.2,0.45q0,0.3 -0.2,0.5l-0.3,0.25l-1.95,0.1l0,-1.05l0.1,-0.95l0.2,-0.2q0.2,-0.2 0.5,-0.2m3,-0.1l0.4,-0.7l0.2,-0.15l0.45,0l0.35,0.25l0.05,0.45l-0.2,0.3l0.3,0l0.35,0.3l0.05,0.45l-0.3,0.3l-0.3,0.1l-1.6,-0.45l0.25,-0.85m-6.6,2.9l0.65,0.15l0.25,0.35l0.15,-0.4q0.2,-0.3 0.55,-0.35l0.55,0.2l0.35,0.5l0,0.45l-1.3,1.9l-1,-0.7l-0.75,-0.8l-0.1,-0.4l0.15,-0.6l0.5,-0.3m-1.65,6.95l-0.3,0.15l0,0.45l0.5,-0.8l-0.2,0.2m-13.95,-23.7l0.2,0.8l0.05,0.9q-0.8,0.15 -1.7,0l-0.15,-0.1l-0.05,0.25l-0.75,1.3l-1,1.35q-1,-0.35 -1.7,-1.2l0,-0.45l0.3,-0.75l0.6,-0.55l0.65,0.05l0.2,0.35l0.25,-0.55l0.65,-0.55l0.6,0.05l0.1,-0.2l0.4,-0.2l0.3,0.1l-0.1,-0.3l0.15,-0.45l0.4,-0.15l0.45,0.15l0.15,0.15m-7.2,0.6l0.5,-0.45l0.55,-0.1l0.25,0.15l0.25,0.9l0.1,1.05q-1,0.7 -2.15,1.1l-0.4,-0.1l-0.25,-0.4l0.15,-0.6l0.55,-0.5l0.4,-0.1l-0.15,-0.3l0.2,-0.65m-2.8,1.2l0.4,0.7l-1.75,1.45l-0.35,0.1l-0.35,-0.2l-0.05,-0.45l0.35,-0.5l0.35,-0.25l-0.2,-0.15l-0.05,-0.5l0.35,-0.45l0.5,-0.25l0.25,0l0.55,0.5m0,1.5l0.9,-0.15l0.85,0q-0.25,0.95 -0.85,2.05l-0.3,0.3l-0.5,0.2l-0.35,-0.2l0.05,-0.55l0.2,-0.35l-0.35,0.1l-0.35,-0.2l0.05,-0.5l0.35,-0.5l0.3,-0.2m2.6,0.3l0.35,-0.15l0.9,0.2l0.8,0.4q-0.6,1.1 -1.55,2.2q-0.15,0.1 -0.45,0.25l-0.5,0.05l-0.25,-0.4l0.2,-0.65l0.35,-0.35l-0.35,-0.05l-0.25,-0.4l0.25,-0.65l0.5,-0.45m3.65,3.85l0.6,-0.25l1.55,0.25l1.4,0.65q-0.95,1.9 -2.55,3.8l-0.7,0.45l-0.95,0.1q-0.4,-0.2 -0.45,-0.7l0.35,-1.05l0.6,-0.65l-0.65,0q-0.4,-0.2 -0.45,-0.7l0.35,-1.05l0.1,-0.15l-0.3,0.35l-0.5,0.3q-0.4,0.15 -0.65,0l-0.3,-0.5l0.3,-0.75l0.4,-0.45l-0.45,-0.05l-0.25,-0.5l0.25,-0.75l0.65,-0.6l0.4,-0.15l1.1,0.25l1,0.5l-1.45,2.15l0.6,-0.5m9.35,0.25l-0.15,-0.25l-0.15,-0.25l-0.35,0.2l-0.7,0.3l-0.4,0.3l0.25,0.2l0.1,0.55l0.45,-0.6q0.4,-0.4 0.85,-0.45l0.1,0m-2.45,-1.85l0,-0.05l-0.05,0.05l0.05,0m-2.3,-0.4l-0.15,-0.15l-0.1,0.15l0.25,0m0.75,6.65l-0.1,-0.05l-0.05,0.05l0.15,0m2.4,-0.65l0.45,0.2l-0.15,-0.5l-0.3,0.3m3.55,4.45l0.1,0.35q0,0.3 -0.15,0.55l0.15,-0.1l0.05,-0.8l-0.15,0m-4.45,2l0.2,0.1l-0.05,-0.1l-0.15,0"/>
   <path id="svg_17" stroke-width="2" stroke-linejoin="round" stroke-linecap="round" stroke="#345309" fill="none" d="m3.2,-16.25l0.05,-0.5l-0.45,-0.6l-0.7,-0.1q-0.4,0.1 -0.6,0.4l-0.2,0.4q-0.1,0.2 0.1,1.3l0.3,1.4q1.3,-0.1 2.65,-0.7l0.3,-0.4l0.15,-0.75l-0.4,-0.55l-0.75,-0.15l-0.45,0.25m-0.45,2.65l-0.8,1.1q-0.6,0.9 -0.65,1.2q1.05,0.8 2.45,1.2l0.5,-0.1l0.55,-0.45l0.1,-0.75l-0.5,-0.55l-0.5,-0.1l0.35,-0.35l0.1,-0.75l-0.5,-0.5l-0.7,-0.1l-0.4,0.15m-0.9,3.9q0.45,0.05 0.7,0.45l0.2,0.8l-0.25,0.55l0.6,-0.05q0.45,0.05 0.75,0.4l0.2,0.85l-0.45,0.7l-0.55,0.3l-3.15,-0.35l0.1,-0.8l-0.1,0.15l-0.85,0.45l0.05,0.45l0.05,0q0.5,0.05 0.75,0.45l0.05,0.05l0.15,-0.5l-0.1,0.55l0.1,0.75l-0.3,0.6l0.5,-0.1l0.2,-0.45l0.5,-0.4l1,-0.25q0.55,0.05 0.9,0.5q0.3,0.45 0.2,1l-0.3,0.7l0.75,-0.1q0.55,0.05 0.9,0.5l0.25,1l-0.55,0.9l-0.65,0.35l-0.55,0.05l0.2,0q0.8,0.15 1.25,0.75q0.4,0.65 0.25,1.45l-0.05,0.25l0.1,0l0.75,0.15l0.35,0.4q-0.05,-0.3 0.15,-0.55q0.2,-0.35 0.6,-0.45l0.75,0.15l0.45,0.6l0.05,0.55l-1.1,2.05l-0.1,0.3q1.6,-2.4 3.8,-4.45q-2.85,2.85 -4.75,6.55l-0.3,1.65l-0.55,0l-0.1,0.3l0,0.1l0,0.2q0.25,0.05 0.5,0.25l0.05,0.05l0.05,-0.15q0.5,-0.85 0.7,-0.95l0.35,-0.15l0.65,0.1l0.4,0.45l-0.05,0.65l-0.3,0.35l0.45,0.05l0.4,0.5l-0.05,0.65l-0.5,0.4l-0.45,0.1l-1.3,-0.5l-0.25,0.4l-0.55,0.5l-1.35,0.3l-0.7,2.4l-0.5,-0.2l0.6,-2.15l-1.95,0.05q-0.15,-0.4 -0.15,-2q0,-1.65 0.2,-1.9l0.35,-0.5l0.4,-0.3q-0.3,-0.4 -0.25,-0.85q0.05,-0.5 0.4,-0.8l0.1,-0.05l-2.3,-0.65l0.5,-2.75q0.55,-2.15 0.95,-2.5q0.35,-0.3 0.65,-0.5l0.8,-0.3l-1.6,-0.15l0.1,0.4l-0.2,0.75l-0.35,0.3l-1.35,0.3l-0.05,0l0.05,5.8q0.65,1.25 1.05,2.6l-0.75,0.45l0.05,0.5l0.15,0.15q1,2.25 1.1,4.45l-0.35,0.15l1.3,4.75l-0.85,0.2q-0.8,-2.35 -1.3,-4.75l-1.1,0.15l-2.25,0.1l-0.65,-0.35l-0.65,-1q-0.15,-0.65 0.2,-1.2l1,-0.7l0.9,0.1l-0.45,-0.8l0,-0.55l-1.45,0.3l-0.8,-0.25q-0.75,-0.25 -1.05,-1q-0.35,-0.7 -0.1,-1.4q0.25,-0.75 1,-1.05l1,-0.2l-0.7,-0.75q-0.35,-0.75 -0.05,-1.45q0.2,-0.75 0.95,-1.05l1.45,-0.1l0.9,0.5l0.85,1.2l0.25,-4.75l-0.25,0.05l0,1l0,2.05l-0.55,0l0.05,-0.6l-2,-0.05l-2.2,-0.4l-0.55,-0.5q-0.45,-0.45 -0.45,-1.1q0,-0.7 0.45,-1.15q0.5,-0.45 1.15,-0.45l0.1,0l-0.1,-0.05l-0.35,-0.5l0.1,-0.65l0.55,-0.35l0.45,0.05l-0.2,-0.4l0.1,-0.65l0.55,-0.35l0.6,0.15l0.3,0.2l0.2,0.4q0.55,0 0.95,0.4l0,-0.05l-0.05,-0.25l-0.5,-0.15l0.1,-1.05l-0.35,-0.05l-0.1,-0.05l-0.05,0.05l-0.05,-0.05l-1.55,-0.4l-1.4,0.5l-0.65,-0.1l-0.65,-0.6l-0.15,-0.5l-0.5,0.45l-0.55,0.2q-0.35,0.1 -0.55,-0.15q-0.25,-0.2 -0.15,-0.6l0.4,-0.75l0.5,-0.4l-0.4,-0.15q-0.25,-0.2 -0.15,-0.6l0.4,-0.75q0.35,-0.4 0.7,-0.45l0.4,-0.1l0.85,0.5l0.35,-0.35l-0.15,0.05l-0.45,-0.1l-0.45,-0.45l-0.05,-0.65l0.25,-0.3l-0.1,-0.5q-2.55,-2.65 -5.95,-3.9q3.35,1.1 5.85,3.15l-0.05,-0.7l-0.4,-0.35l-0.05,-0.25l-0.4,0.4q-1.15,-0.5 -1.85,-1.65l0,-0.6l0.4,-0.9l0.65,-0.55l-0.05,-0.15l0.2,-0.4l0.4,-0.2l0.3,0.05l0.65,0.5l0.8,-0.55l0.7,0.1l0.2,0.3l0.15,0.1l0,-0.35l0.35,-0.4l0.5,-0.05q0.25,0.05 0.4,0.3l0.15,0.3l-0.15,0.95l-0.3,0.95l-1.4,-0.4l-0.25,0.35l0.25,0.1l0.2,0.3l0.65,-0.1q0.45,0.1 0.55,0.6l0.05,0.1l0,-0.05q0.15,-0.3 0.45,-0.4l0.6,0l0.25,0.15l0.25,0.05l0.3,0.15l0.35,-0.3l0.8,-0.2q0.4,0.1 0.7,0.5l0.15,0.6l0.4,-0.45l0.85,-0.2l0.65,0.5l0.2,0.85l-0.2,0.55q-1.15,1.1 -2.45,1.7l0.05,0.55l0.45,-0.3l0.75,0.1l0.45,0.6q0.25,-1.2 0.45,-1.35l0.35,-0.35l0.85,-0.2m5.75,9l-0.5,0.3l-0.15,0.6l0.1,0.4l0.75,0.8l1,0.7l1.3,-1.9l0,-0.45l-0.35,-0.5l-0.55,-0.2q-0.35,0.05 -0.55,0.35l-0.15,0.4l-0.25,-0.35l-0.65,-0.15m6.6,-2.9l-0.25,0.85l1.6,0.45l0.3,-0.1l0.3,-0.3l-0.05,-0.45l-0.35,-0.3l-0.3,0l0.2,-0.3l-0.05,-0.45l-0.35,-0.25l-0.45,0l-0.2,0.15l-0.4,0.7m-3,0.1q-0.3,0 -0.5,0.2l-0.2,0.2l-0.1,0.95l0,1.05l1.95,-0.1l0.3,-0.25q0.2,-0.2 0.2,-0.5l-0.2,-0.45l-0.5,-0.2l-0.35,0.1l0.1,-0.35l-0.2,-0.5l-0.5,-0.15m0.85,2.85l-0.3,0.05l-0.7,0.65l-0.65,0.75l1.5,1.25l0.4,0l0.45,-0.25l0.15,-0.5l-0.2,-0.45q-0.2,-0.15 -0.35,-0.15l0.3,-0.2l0.15,-0.5l-0.25,-0.45l-0.5,-0.2m2.3,-1.6l-0.8,0.3l-0.7,0.45q0.25,0.75 0.9,1.45l0.3,0.1l0.4,-0.05l0.3,-0.35l-0.1,-0.45l-0.2,-0.25l0.3,-0.05l0.25,-0.4l-0.05,-0.4l-0.35,-0.3l-0.25,-0.05m-4.2,4.1l-0.9,0.75l-0.75,0.95l1.3,1.15l-0.5,-0.1l-0.5,0.1l-1.3,1l-1.15,1.25q0.95,1.25 2.5,2.2l0.65,0.05l0.8,-0.4l0.35,-0.8l-0.4,-0.8l-0.55,-0.3l0.5,-0.35q0.35,-0.35 0.35,-0.8l-0.4,-0.8l0.2,0.1l0.45,0l0.6,-0.3l0.2,-0.6q-0.05,-0.35 -0.3,-0.55q-0.2,-0.2 -0.45,-0.2l0.4,-0.25l0.2,-0.6l-0.3,-0.55q-0.3,-0.25 -0.6,-0.2l-0.4,0.05m-18.15,-19.3l0.2,0.8l0.05,0.9q-0.8,0.15 -1.7,0l-0.15,-0.1l-0.05,0.25l-0.75,1.3l-1,1.35q-1,-0.35 -1.7,-1.2l0,-0.45l0.3,-0.75l0.6,-0.55l0.65,0.05l0.2,0.35l0.25,-0.55l0.65,-0.55l0.6,0.05l0.1,-0.2l0.4,-0.2l0.3,0.1l-0.1,-0.3l0.15,-0.45l0.4,-0.15l0.45,0.15l0.15,0.15m-7.2,0.6l0.5,-0.45l0.55,-0.1l0.25,0.15l0.25,0.9l0.1,1.05q-1,0.7 -2.15,1.1l-0.4,-0.1l-0.25,-0.4l0.15,-0.6l0.55,-0.5l0.4,-0.1l-0.15,-0.3l0.2,-0.65m-2.8,1.2l0.4,0.7l-1.75,1.45l-0.35,0.1l-0.35,-0.2l-0.05,-0.45l0.35,-0.5l0.35,-0.25l-0.2,-0.15l-0.05,-0.5l0.35,-0.45l0.5,-0.25l0.25,0l0.55,0.5m0,1.5l0.9,-0.15l0.85,0q-0.25,0.95 -0.85,2.05l-0.3,0.3l-0.5,0.2l-0.35,-0.2l0.05,-0.55l0.2,-0.35l-0.35,0.1l-0.35,-0.2l0.05,-0.5l0.35,-0.5l0.3,-0.2m6.25,4.15l0.6,-0.25l1.55,0.25l1.4,0.65q-0.95,1.9 -2.55,3.8l-0.7,0.45l-0.95,0.1q-0.4,-0.2 -0.45,-0.7l0.35,-1.05l0.6,-0.65l-0.65,0q-0.4,-0.2 -0.45,-0.7l0.35,-1.05l0.1,-0.15l-0.3,0.35l-0.5,0.3q-0.4,0.15 -0.65,0l-0.3,-0.5l0.3,-0.75l0.4,-0.45l-0.45,-0.05l-0.25,-0.5l0.25,-0.75l0.65,-0.6l0.4,-0.15l1.1,0.25l1,0.5l-1.45,2.15l0.6,-0.5m7.75,4l0.3,-0.3l0.15,0.5l-0.45,-0.2"/>
  </g>
  <g transform="matrix(1,0,0,1,1.45,5.8) " id="shape7">
   <path id="svg_18" fill-rule="evenodd" fill="#513f20" d="m0.85,20.45q-4.15,-12.75 -0.75,-26.25q-2.75,12.45 1.6,26.05l-0.85,0.2"/>
  </g>
  <g transform="matrix(1,0,0,1,4.1,3.8) " id="shape8">
   <path id="svg_19" fill-rule="evenodd" fill="#819213" d="m0.1,-3.2q0.55,-0.6 1.35,-0.6q0.75,0 1.3,0.6q0.55,0.55 0.6,1.3l-0.15,1.05q-1.6,2.45 -3.75,3.95l-1.95,-1.95l-1.55,-2.2l-0.05,-0.85q0,-0.75 0.55,-1.3q0.55,-0.6 1.3,-0.6q0.8,0 1.35,0.6q0.4,0.35 0.5,0.9l0.5,-0.9"/>
   <path id="svg_20" stroke-width="0.05" stroke-linejoin="round" stroke-linecap="round" stroke="#55720d" fill="none" d="m0.1,-3.2l-0.5,0.9q-0.1,-0.55 -0.5,-0.9q-0.55,-0.6 -1.35,-0.6q-0.75,0 -1.3,0.6q-0.55,0.55 -0.55,1.3l0.05,0.85l1.55,2.2l1.95,1.95q2.15,-1.5 3.75,-3.95l0.15,-1.05q-0.05,-0.75 -0.6,-1.3q-0.55,-0.6 -1.3,-0.6q-0.8,0 -1.35,0.6z"/>
  </g>
  <g id="sprite2">
   <use id="svg_21" xlink:href="#shape9" width="102.95" height="45"/>
  </g>
  <g id="shape9">
   <path id="svg_22" fill-rule="evenodd" fill-opacity="0" fill="#ff00ff" d="m0,0l102.95,0l0,45l-102.95,0l0,-45"/>
  </g>
 </defs>
 <g>
  <title>background</title>
  <rect fill="none" id="canvas_background" height="214" width="226" y="-1" x="-1"/>
 </g>
 <g>
  <title>Layer 1</title>
  <g id="svg_23">
   <use x="132.050003" y="218.5" id="svg_24" xlink:href="#shape0" width="381" transform="matrix(1,0,0,1,-192.55,-294) " height="381"/>
   <use x="54.273375" y="-13.155311" id="svg_25" xlink:href="#shape1" width="9" transform="matrix(-2.2509999999999994,-0.8855999999999999,-4.7258,2.0475,192.34880305175776,274.92599999999993) " height="4.65"/>
   <use x="6.546609" y="-5.209079" id="svg_26" xlink:href="#shape1" width="9" transform="matrix(-2.2367,1.0965,-0.12339999999999994,3.105799999999998,159.3488030517578,184.52229999999997) " height="4.65"/>
   <use x="15.994143" y="73.997943" id="svg_27" xlink:href="#shape2" width="6.2" transform="matrix(-2.4525,2.3146,2.3146,2.4525,-2.35,-56.831) " height="6.25"/>
   <use x="15.55563" y="62.478667" id="svg_28" xlink:href="#shape3" width="20" transform="matrix(0.9051999999999999,-1.1856999999999998,-1.1856999999999998,-0.9051999999999999,194.40780305175775,221.9069) " height="12.05"/>
   <use x="17.763041" y="-22.203801" id="svg_29" xlink:href="#sprite0" width="10.55" transform="matrix(-3.3777999999999997,0,0,3.3777999999999997,195.71330305175778,114.4462) " height="44.6"/>
   <use x="22.323237" y="60.24958" id="svg_30" xlink:href="#shape3" width="20" transform="matrix(-1.4189999999999998,0.4700999999999999,-0.4700999999999999,-1.4189999999999998,170.2315030517578,230.2757) " height="12.05"/>
   <use x="17.763041" y="-22.203801" id="svg_31" xlink:href="#sprite1" width="6.8" transform="matrix(-3.3777999999999997,0,0,3.3777999999999997,192.83890305175782,191.4111) " height="3.7"/>
   <use x="8.695255" y="-55.036605" id="svg_32" xlink:href="#shape6" width="38.3" transform="matrix(-2.0722,3.5843,-2.7267,-3.4038,96.7543,-155.5381) " height="40.2"/>
   <use x="9.743541" y="34.361852" id="svg_33" xlink:href="#shape7" width="3.15" transform="matrix(0.7718999999999998,-2.6969999999999996,-1.965,-1.4179,234.3776030517578,172.73439999999994) " height="26.25"/>
   <use x="-6.720933" y="2.026515" id="svg_34" xlink:href="#shape8" width="7.45" transform="matrix(2.1039999999999996,0.43229999999999996,0.06949999999999998,-3.007399999999999,151.0593030517578,99.45599999999997) " height="6.9"/>
   <use x="-89.358608" y="-15.045543" id="svg_35" xlink:href="#shape8" width="7.45" transform="matrix(-1.1846,-2.685,-1.7411,1.4242,36.523,-140.5033) " height="6.9"/>
   <use x="36.247829" y="-100.741706" id="svg_36" xlink:href="#shape8" width="7.45" transform="matrix(1.6283,-0.7826,-0.7249,-2.4505,22.3787,-114.4292) " height="6.9"/>
   <use x="-123.703164" y="-26.31595" id="svg_37" xlink:href="#shape8" width="7.45" transform="matrix(-0.7946,-1.9657,-1.2827,0.9372,44.7822,-130.452) " height="6.9"/>
   <use x="35.008178" y="-126.049503" id="svg_38" xlink:href="#shape8" width="7.45" transform="matrix(1.2847,-0.788,-0.6908,-1.9523,36.9576,-109.3007) " height="6.9"/>
   <use x="-151.321295" y="-31.482598" id="svg_39" xlink:href="#shape8" width="7.45" transform="matrix(-0.6549,-1.605,-1.0466,0.7741,53.4621,-123.6612) " height="6.9"/>
   <use x="28.645718" y="54.110111" id="svg_40" xlink:href="#shape8" width="7.45" transform="matrix(0.2007,-1.7115,-1.2151000000000003,-0.4800000000000001,247.49450305175785,186.84100000000007) " height="6.9"/>
   <use x="-179.346834" y="22.130589" id="svg_41" xlink:href="#shape8" width="7.45" transform="matrix(-0.8186,-1.0864,-0.6671,1.069,62.7411,-123.9079) " height="6.9"/>
   <use x="-151.29845" y="-99.625983" id="svg_42" xlink:href="#shape8" width="7.45" transform="matrix(-0.1906,-1.5164,-1.036,0.1097,68.6183,-112.9994) " height="6.9"/>
   <use x="57.323666" y="-90.328908" id="svg_43" xlink:href="#shape8" width="7.45" transform="matrix(1.7486,-0.2289,-0.3522,-2.5642,-1.381,-138.1677) " height="6.9"/>
   <use x="-114.886132" y="-52.646329" id="svg_44" xlink:href="#shape8" width="7.45" transform="matrix(-0.4958,-2.1245,-1.4263,0.4858,19.0525,-149.4355) " height="6.9"/>
   <use x="-35.032677" y="-83.13659" id="svg_45" xlink:href="#shape7" width="3.15" transform="matrix(-1.9755,0.7722,-0.7559,-2.9536,-19.3512,-110.8389) " height="26.25"/>
   <use x="0" y="0" id="svg_46" xlink:href="#shape8" width="7.45" transform="matrix(0.050999999999999976,3.033099999999999,-2.1085999999999996,-0.26009999999999994,112.05380305175774,53.90260000000001) " height="6.9"/>
   <use x="-88.633426" y="-17.993257" id="svg_47" xlink:href="#shape8" width="7.45" transform="matrix(-1.7339,-1.9988,1.2022,-2.2975,-32.4595,-121.4246) " height="6.9"/>
   <use x="39.520609" y="-99.278074" id="svg_48" xlink:href="#shape8" width="7.45" transform="matrix(-0.7408,2.2141,-1.625,-1.3195,-12.5881,-138.3138) " height="6.9"/>
   <use x="-122.513941" y="-30.383982" id="svg_49" xlink:href="#shape8" width="7.45" transform="matrix(-1.2781,-1.3604,0.8075,-1.7059,-26.3784,-108.5397) " height="6.9"/>
   <use x="39.132037" y="-124.564352" id="svg_50" xlink:href="#shape8" width="7.45" transform="matrix(-0.7035,1.7266,-1.2811,-1.2117,-10.6976,-117.0746) " height="6.9"/>
   <use x="-149.894675" y="-36.45952" id="svg_51" xlink:href="#shape8" width="7.45" transform="matrix(-1.0428,-1.1194,0.6654,-1.3908,-22.7032,-95.3754) " height="6.9"/>
   <use x="-88.514688" y="-126.815008" id="svg_52" xlink:href="#shape8" width="7.45" transform="matrix(-1.2192,0.0804,-0.1903,-1.7791,-11.0781,-90.6187) " height="6.9"/>
   <use x="69.13229" y="-17.306189" id="svg_53" xlink:href="#shape8" width="7.45" transform="matrix(-0.6610999999999999,-1.2895999999999999,0.8261,-0.8178,168.0713030517578,211.1951) " height="6.9"/>
   <use x="0" y="0" id="svg_54" xlink:href="#shape8" width="7.45" transform="matrix(-1.0363,-0.4509000000000001,0.20009999999999997,-1.4550999999999998,114.93830305175773,145.87799999999993) " height="6.9"/>
   <use x="-18.08604" y="38.119223" id="svg_55" xlink:href="#shape8" width="7.45" transform="matrix(-0.36839999999999995,2.4505999999999997,-1.7488,-0.8048,165.70560305175778,118.71090000000001) " height="6.9"/>
   <use x="9.766209" y="-0.170904" id="svg_56" xlink:href="#shape8" width="7.45" transform="matrix(-1.4245999999999999,-0.9558999999999999,0.5094,-1.9632,109.45530305175788,80.27940000000005) " height="6.9"/>
   <use x="8.695255" y="-55.036605" id="svg_57" xlink:href="#shape7" width="3.15" transform="matrix(-2.0722,3.5843,-2.7267,-3.4038,20.6199,-129.0055) " height="26.25"/>
   <use x="-20.8115" y="7.374355" id="svg_58" xlink:href="#shape8" width="7.45" transform="matrix(1.8706,4.3947,-2.8572000000000006,2.2321000000000004,179.83780305175787,86.19990000000001) " height="6.9"/>
   <use x="18.218379" y="12.459832" id="svg_59" xlink:href="#shape8" width="7.45" transform="matrix(-3.4119,-0.7879,0.17329999999999998,-4.867299999999999,189.58000305175784,165.126) " height="6.9"/>
   <use x="-18.309943" y="18.568564" id="svg_60" xlink:href="#shape8" width="7.45" transform="matrix(0.36849999999999994,4.172599999999999,-2.8679,0.0754,204.9872030517578,115.65579999999994) " height="6.9"/>
   <use x="0" y="0" id="svg_61" xlink:href="#shape8" width="7.45" transform="matrix(-2.447699999999999,-0.4147999999999998,0.01949999999999999,-3.508399999999998,145.0614030517578,101.68279999999992) " height="6.9"/>
   <use x="61.107476" y="-52.621392" id="svg_62" xlink:href="#shape8" width="7.45" transform="matrix(0.1261,3.4099,-2.363,-0.1925,27.9625,-148.8989) " height="6.9"/>
   <use x="-66.78429" y="-67.955768" id="svg_63" xlink:href="#shape8" width="7.45" transform="matrix(-2.0027,-0.3523,0.025,-2.8691,25.516,-102.1527) " height="6.9"/>
   <use x="7.86087" y="36.91238" id="svg_64" xlink:href="#shape8" width="7.45" transform="matrix(-1.5147000000000004,1.6297000000000004,-1.3029,-2.3789,235.2611030517578,183.9579) " height="6.9"/>
   <use x="41.914955" y="13.436386" id="svg_65" xlink:href="#shape8" width="7.45" transform="matrix(-1.6147999999999996,-1.0756999999999999,0.5718999999999999,-2.2261999999999995,223.7473030517578,212.17000000000002) " height="6.9"/>
   <use x="0" y="0" id="svg_66" xlink:href="#shape8" width="7.45" transform="matrix(-1.5964999999999996,0.6221999999999998,-0.6096000000000001,-2.3867000000000003,178.3121030517578,142.8686) " height="6.9"/>
   <use x="60.314503" y="-26.669759" id="svg_67" xlink:href="#shape8" width="7.45" transform="matrix(0.9865,4.0584,-2.7203,0.9854,-26.3577,-214.3339) " height="6.9"/>
   <use x="-40.859386" y="-66.325443" id="svg_68" xlink:href="#shape8" width="7.45" transform="matrix(-2.3947,0.3614,-0.5157,-3.517,-23.122,-161.1173) " height="6.9"/>
   <use x="-56.088573" y="-52.298593" id="svg_69" xlink:href="#shape7" width="3.15" transform="matrix(-0.6558,-4.1885,-1.8216,0.3141,66.3663,-140.0983) " height="26.25"/>
   <use x="-5.46951" y="4.766473" id="svg_70" xlink:href="#shape8" width="7.45" transform="matrix(1.4927999999999997,-1.6929999999999996,-1.2241999999999995,-3.830899999999999,186.03130305175782,117.9487999999999) " height="6.9"/>
   <use x="-75.005635" y="16.872483" id="svg_71" xlink:href="#shape8" width="7.45" transform="matrix(-1.8695,-2.0972,-0.4844,3.6271,54.4057,-158.5344) " height="6.9"/>
   <use x="-4.690058" y="38.25765" id="svg_72" xlink:href="#shape8" width="7.45" transform="matrix(0.6845000000000001,-2.7058000000000004,-1.4844,-2.2921,248.68420305175783,182.50380000000007) " height="6.9"/>
   <use x="9.764824" y="2.663999" id="svg_73" xlink:href="#shape8" width="7.45" transform="matrix(-1.3234999999999995,-1.6124999999999994,-0.40399999999999997,2.5321999999999996,209.8616030517578,72.68869999999988) " height="6.9"/>
   <use x="-12.978865" y="-110.228001" id="svg_74" xlink:href="#shape8" width="7.45" transform="matrix(0.4682,-2.3479,-1.2531,-1.7058,67.8421,-120.0915) " height="6.9"/>
   <use x="55.636109" y="-1.01872" id="svg_75" xlink:href="#shape8" width="7.45" transform="matrix(-1.0843999999999998,-1.3099999999999998,-0.32569999999999993,2.0777999999999994,264.1336030517578,137.9753) " height="6.9"/>
   <use x="42.50191" y="36.130224" id="svg_76" xlink:href="#shape8" width="7.45" transform="matrix(-0.5963,-2.3511,-0.9592000000000003,0.6899000000000001,272.48980305175775,157.1179) " height="6.9"/>
   <use x="-133.732383" y="74.965794" id="svg_77" xlink:href="#shape8" width="7.45" transform="matrix(-0.9678,-0.4884,0.035,2.0434,77.785,-165.6626) " height="6.9"/>
   <use x="-150.79904" y="-29.663703" id="svg_78" xlink:href="#shape8" width="7.45" transform="matrix(-0.7578,-1.6922,-0.5992,1.2366,86.0339,-158.361) " height="6.9"/>
   <use x="16.01402" y="-89.340269" id="svg_79" xlink:href="#shape8" width="7.45" transform="matrix(0.9928,-2.1417,-1.3001,-2.8296,31.8198,-115.5164) " height="6.9"/>
   <use x="44.533454" y="9.321069" id="svg_80" xlink:href="#shape8" width="7.45" transform="matrix(-1.2042000000000002,-2.1280000000000006,-0.6837,2.1207,231.83550305175788,142.3162) " height="6.9"/>
   <use x="2.384127" y="-2.364284" id="svg_81" xlink:href="#shape6" width="38.3" transform="matrix(-1.4718999999999998,-3.8423999999999996,4.4372,-0.068,48.33320305175782,161.642) " height="40.2"/>
   <use x="-33.756482" y="-2.267742" id="svg_82" xlink:href="#shape7" width="3.15" transform="matrix(1.6171999999999995,2.2677999999999994,2.3851999999999998,-0.6847999999999999,102.32100305175778,163.23339999999993) " height="26.25"/>
   <use x="-9.187824" y="-32.661002" id="svg_83" xlink:href="#shape8" width="7.45" transform="matrix(-1.7015,1.4003,2.3157000000000005,1.9024000000000005,132.27660305175786,138.12960000000007) " height="6.9"/>
   <use x="46.203333" y="-82.376111" id="svg_84" xlink:href="#shape8" width="7.45" transform="matrix(2.8746,0.7115,0.0093,-2.2534,-70.4712,-122.7543) " height="6.9"/>
   <use x="-26.606183" y="-29.965339" id="svg_85" xlink:href="#shape8" width="7.45" transform="matrix(-0.4399000000000001,1.7699000000000005,2.3929000000000005,0.9314000000000002,110.26050305175784,143.5541) " height="6.9"/>
   <use x="0" y="0" id="svg_86" xlink:href="#shape8" width="7.45" transform="matrix(2.0575,0.5784,0.09480000000000002,-1.5913000000000004,48.30410305175779,96.12550000000002) " height="6.9"/>
   <use x="111.353717" y="78.699677" id="svg_87" xlink:href="#shape8" width="7.45" transform="matrix(-0.2133,1.5012,1.9797,0.6523,-95.2484,-141.5336) " height="6.9"/>
   <use x="84.135619" y="-137.393614" id="svg_88" xlink:href="#shape8" width="7.45" transform="matrix(1.6838,0.4674,0.07,-1.3041,-94.6695,-119.7105) " height="6.9"/>
   <use x="154.36092" y="-47.500622" id="svg_89" xlink:href="#shape8" width="7.45" transform="matrix(1.2135,1.2102,1.1635,-0.6672,-109.2464,-128.5265) " height="6.9"/>
   <use x="0" y="0" id="svg_90" xlink:href="#shape8" width="7.45" transform="matrix(1.3826999999999994,0.019199999999999988,-0.40719999999999984,-1.1847999999999994,31.528103051757796,106.27339999999984) " height="6.9"/>
   <use x="150.983688" y="-113.386811" id="svg_91" xlink:href="#shape8" width="7.45" transform="matrix(1.3137,0.7806,0.5847,-0.8876,-112.8581,-114.1775) " height="6.9"/>
   <use x="68.454636" y="88.024901" id="svg_92" xlink:href="#shape8" width="7.45" transform="matrix(-0.9524,1.525,2.2408,1.2963,-47.8099,-154.1284) " height="6.9"/>
   <use x="92.080364" y="-94.191124" id="svg_93" xlink:href="#shape8" width="7.45" transform="matrix(1.9886,0.9125,0.5421,-1.4277,-52.1633,-131.1162) " height="6.9"/>
   <use x="-69.243405" y="63.624151" id="svg_94" xlink:href="#shape7" width="3.15" transform="matrix(0.6729,-2.0384,2.8078,1.2158,-57.6112,-185.1959) " height="26.25"/>
   <use x="-83.362418" y="-44.079608" id="svg_95" xlink:href="#shape8" width="7.45" transform="matrix(-2.4139,-1.8228,1.5694,-1.5097,-14.9667,-152.6398) " height="6.9"/>
   <use x="13.529091" y="93.293436" id="svg_96" xlink:href="#shape8" width="7.45" transform="matrix(2.6916,-0.145,1.0251,2.3631,-40.7806,-189.0353) " height="6.9"/>
   <use x="0" y="0" id="svg_97" xlink:href="#shape8" width="7.45" transform="matrix(-1.2583999999999995,-1.9464999999999992,2.087799999999999,-0.47599999999999987,91.57580305175783,55.53959999999995) " height="6.9"/>
   <use x="13.296387" y="130.893091" id="svg_98" xlink:href="#shape8" width="7.45" transform="matrix(1.8954,-0.1762,0.8163,1.6872,-54.8728,-192.1889) " height="6.9"/>
   <use x="-135.985108" y="5.44263" id="svg_99" xlink:href="#shape8" width="7.45" transform="matrix(-0.8998,-1.6176,1.7805,-0.27,-58.3267,-174.5421) " height="6.9"/>
   <use x="16.971363" y="159.903011" id="svg_100" xlink:href="#shape8" width="7.45" transform="matrix(1.5538,-0.138,0.6609,1.3811,-67.5321,-197.3326) " height="6.9"/>
   <use x="-93.274919" y="131.461756" id="svg_101" xlink:href="#shape8" width="7.45" transform="matrix(0.7263,-1.0146,1.5198,0.9422,-78.8028,-191.0703) " height="6.9"/>
   <use x="78.997096" y="170.592771" id="svg_102" xlink:href="#shape8" width="7.45" transform="matrix(1.4403,0.2687,0.1071,1.1564,-77.0622,-206.3961) " height="6.9"/>
   <use x="-50.524519" y="181.545114" id="svg_103" xlink:href="#shape8" width="7.45" transform="matrix(1.0249,-0.5435,1.0126,1.0523,-89.0999,-206.8702) " height="6.9"/>
   <use x="-107.705917" y="-28.03018" id="svg_104" xlink:href="#shape8" width="7.45" transform="matrix(-1.6851,-1.797,1.764,-0.8902,-2.8941,-151.4498) " height="6.9"/>
   <use x="-15.589933" y="130.543452" id="svg_105" xlink:href="#shape8" width="7.45" transform="matrix(1.6727,-0.5407,1.2113,1.6092,-17.8608,-176.498) " height="6.9"/>
   <use x="2.384127" y="-2.364284" id="svg_106" xlink:href="#shape7" width="3.15" transform="matrix(-1.4718999999999998,-3.8423999999999996,4.4372,-0.068,76.79840305175782,85.0661) " height="26.25"/>
   <use x="13.213779" y="16.211249" id="svg_107" xlink:href="#shape8" width="7.45" transform="matrix(-4.6607,-1.2184,0.09779999999999998,-3.6332999999999998,205.48750305175784,173.15190000000007) " height="6.9"/>
   <use x="-23.286862" y="53.362981" id="svg_108" xlink:href="#shape8" width="7.45" transform="matrix(2.8274,-2.2173,3.7084,3.127,-54.8343,-161.0917) " height="6.9"/>
   <use x="22.400742" y="10.410529" id="svg_109" xlink:href="#shape8" width="7.45" transform="matrix(-3.5139,-2.2713,1.7975999999999999,-2.3169999999999997,166.07600305175782,175.0168) " height="6.9"/>
   <use x="-35.653545" y="73.017377" id="svg_110" xlink:href="#shape8" width="7.45" transform="matrix(1.9104,-1.6831,2.7413,2.1706,-73.8996,-155.9973) " height="6.9"/>
   <use x="28.242713" y="10.647858" id="svg_111" xlink:href="#shape8" width="7.45" transform="matrix(-2.7582,-1.9948,1.6809999999999998,-1.7525999999999997,133.62090305175778,169.08839999999992) " height="6.9"/>
   <use x="-43.171032" y="89.434532" id="svg_112" xlink:href="#shape8" width="7.45" transform="matrix(1.5732,-1.3692,2.2359,1.7822,-93.4967,-155.0587) " height="6.9"/>
   <use x="-91.765526" y="38.604403" id="svg_113" xlink:href="#shape8" width="7.45" transform="matrix(-0.2986,-2.2003,2.7108,0.4297,-99.227,-136.4618) " height="6.9"/>
   <use x="-14.111354" y="115.246617" id="svg_114" xlink:href="#shape8" width="7.45" transform="matrix(1.8898,-0.6177,1.3772,1.8203,-113.8817,-162.9345) " height="6.9"/>
   <use x="1.555931" y="-6.546647" id="svg_115" xlink:href="#shape8" width="7.45" transform="matrix(0.5452999999999998,-1.6461999999999997,2.2680999999999996,0.9834999999999999,18.295503051757763,72.61229999999996) " height="6.9"/>
   <use x="-47.387779" y="-49.792265" id="svg_116" xlink:href="#shape8" width="7.45" transform="matrix(-3.8244,-1.7119,0.9877,-2.759,28.1267,-127.1971) " height="6.9"/>
   <use x="-50.699533" y="63.423738" id="svg_117" xlink:href="#shape8" width="7.45" transform="matrix(1.2667,-2.118,3.0946,1.752,-15.703,-157.3741) " height="6.9"/>
   <use x="52.560731" y="-67.613309" id="svg_118" xlink:href="#shape7" width="3.15" transform="matrix(3.7124,2.0536,0.9329,-1.6352,-90.1935,-99.4438) " height="26.25"/>
   <use x="81.536067" y="26.976164" id="svg_119" xlink:href="#shape8" width="7.45" transform="matrix(0.3624,2.2219,3.7997,1.384,-97.0747,-139.0688) " height="6.9"/>
   <use x="-1.731585" y="3.573537" id="svg_120" xlink:href="#shape8" width="7.45" transform="matrix(2.856599999999999,-0.19189999999999993,-2.5334999999999996,-2.6114999999999995,78.11510305175773,129.96049999999997) " height="6.9"/>
   <use x="0" y="0" id="svg_121" xlink:href="#shape8" width="7.45" transform="matrix(1.6808,2.2039999999999997,2.7601999999999998,0.2327,25.369903051757845,93.4792) " height="6.9"/>
   <use x="4.152256" y="39.866507" id="svg_122" xlink:href="#shape8" width="7.45" transform="matrix(2.1226000000000003,-0.057400000000000014,-1.7261,-1.8753,115.05650305175784,201.1114) " height="6.9"/>
   <use x="121.307255" y="-25.456405" id="svg_123" xlink:href="#shape8" width="7.45" transform="matrix(1.5398,1.8129,2.1503,0.0557,-106.8846,-110.5446) " height="6.9"/>
   <use x="-39.433759" y="-141.036673" id="svg_124" xlink:href="#shape8" width="7.45" transform="matrix(1.7304,-0.0538,-1.4201,-1.5342,-81.7981,-85.3992) " height="6.9"/>
   <use x="63.881428" y="-132.173468" id="svg_125" xlink:href="#shape8" width="7.45" transform="matrix(2.2316,0.9721,0.0795,-1.1833,-102.2015,-90.5894) " height="6.9"/>
   <use x="-96.758417" y="-141.255581" id="svg_126" xlink:href="#shape8" width="7.45" transform="matrix(1.0099,-0.4662,-1.6266,-1.2275,-77.5096,-74.724) " height="6.9"/>
   <use x="0" y="0" id="svg_127" xlink:href="#shape8" width="7.45" transform="matrix(1.8190000000000002,0.43940000000000007,-0.5826999999999999,-1.2339999999999998,43.456703051757785,145.83739999999992) " height="6.9"/>
   <use x="100.973402" y="8.880219" id="svg_128" xlink:href="#shape8" width="7.45" transform="matrix(1.0384,2.1016,3.0629,0.7088,-87.0961,-141.8602) " height="6.9"/>
   <use x="-3.627093" y="4.184977" id="svg_129" xlink:href="#shape8" width="7.45" transform="matrix(2.4499999999999993,0.3536999999999999,-1.2219,-1.844,81.79830305175781,113.85690000000001) " height="6.9"/>
   <use x="17.763041" y="-22.203801" id="svg_130" xlink:href="#shape2" width="6.2" transform="matrix(-3.3777999999999997,0,0,3.3777999999999997,182.4777030517578,250.67449999999994) " height="6.25"/>
   <use x="-33.200531" y="-45.350103" xlink:href="#sprite2" width="102.95" transform="matrix(1.8072000000000004,0,0,1.6538,81.00000305175782,145.3) " id="_mcMask" height="45"/>
  </g>
 </g>
</svg>